<svg y="552.665" x="1007.5" version="1.1" width="317" height="64" viewBox="0 0 317 64" id="svg78192" xmlns:xlink="http://www.w3.org/1999/xlink" xmlns="http://www.w3.org/2000/svg" xmlns:svg="http://www.w3.org/2000/svg" xmlns:rdf="http://www.w3.org/1999/02/22-rdf-syntax-ns#" xmlns:cc="http://creativecommons.org/ns#" xmlns:dc="http://purl.org/dc/elements/1.1/">
 <metadata id="metadata78198">image/svg+xml</metadata>

 <linearGradient id="3d_gradient2-logo-682f3222-452d-46d2-bf30-c93cee4278d2" x1="30%" y1="120%" x2="-10%" y2="30%" spreadMethod="pad">
  <stop offset="0%" stop-color="#ffffff" id="stop78173"/>
  <stop offset="100%" stop-color="#000000" id="stop78175"/>
 </linearGradient>
 <linearGradient id="3d_gradient3-logo-682f3222-452d-46d2-bf30-c93cee4278d2" x1="30%" y1="120%" x2="-10%" y2="30%" spreadMethod="pad" gradientTransform="rotate(-30)">
  <stop offset="0%" stop-color="#ffffff" id="stop78178"/>
  <stop offset="50%" stop-color="#cccccc" id="stop78180"/>
  <stop offset="100%" stop-color="#000000" id="stop78182"/>
 </linearGradient>
 <g id="logo-group">
  <g id="logo-center">
   <image width="0" height="0" y="-351.98328" x="-353.51215" id="icon_container"/>
   <g text-anchor="middle" font-family="Orienta" font-size="32px" font-weight="400" font-style="normal" transform="translate(0 0)" id="slogan"/>
   <g text-anchor="middle" font-family="'Brandmark Didone 1'" font-size="72px" font-weight="normal" font-style="normal" transform="translate(0 0)" id="title">
    <path transform="translate(-353.512 -351.983) translate(0 280.783)" stroke="#3a456c" fill="#3a456c" stroke-miterlimit="2" stroke-width="0" d="m385.6421,97.05592l-11.07,32.454l-9.342,-27.378c-1.08,-3.186 -3.83399,-5.076 -7.12799,-5.076l-4.59,0l0,0.27c2.53799,0 3.99599,1.89 4.91399,4.32l11.34,33.588l3.94201,0l13.01399,-38.178l-1.08,0z" id="path78201"/>
    <path transform="translate(-353.512 -351.983) translate(0 280.783)" stroke="#465075" fill="#465075" stroke-miterlimit="2" stroke-width="0" d="m421.85332,97.05592l0,23.598c0,7.344 -6.534,13.284 -12.69,13.284c-6.156,0 -9.666,-5.94 -9.666,-13.284l0,-23.598l-10.692,0l0,0.27c2.7,0 4.86,2.16 4.86,4.806l0,18.522c0,8.046 6.534,14.58 14.634,14.58c8.1,0 14.634,-6.534 14.634,-14.58l0,-23.598l-1.08,0z" id="path78203"/>
    <path transform="translate(-353.512 -351.983) translate(0 280.783)" stroke="#525c7e" fill="#525c7e" stroke-miterlimit="2" stroke-width="0" d="m438.63129,98.13592l16.308,0l0,-1.08l-27,0l0,0.27c2.7,0 4.86001,2.16 4.86001,4.806l0,32.67l22.13999,0l0,-1.08l-16.308,0l0,-21.276l15.012,0l0,-1.08l-15.012,0l0,-13.23z" id="path78205"/>
    <path transform="translate(-353.512 -351.983) translate(0 280.783)" stroke="#5d6786" fill="#5d6786" stroke-miterlimit="2" stroke-width="0" d="m486.45842,98.13592l0,-1.08l-29.376,0l0,1.08l11.77199,0l0,36.666l5.832,0l0,-36.666l11.77201,0z" id="path78207"/>
    <path transform="translate(-353.512 -351.983) translate(0 280.783)" stroke="#69728f" fill="#69728f" stroke-miterlimit="2" stroke-width="0" d="m498.85395,97.05592l-10.692,0l0,0.27c2.7,0 4.86,2.16 4.86,4.806l0,32.67l5.832,0l0,-37.746z" id="path78209"/>
    <path transform="translate(-353.512 -351.983) translate(0 280.783)" stroke="#757e98" fill="#757e98" stroke-miterlimit="2" stroke-width="0" d="m515.09614,98.13592l16.308,0l0,-1.08l-27,0l0,0.27c2.7,0 4.86,2.16 4.86,4.806l0,32.67l5.832,0l0,-22.302l14.256,0l0,-1.08l-14.256,0l0,-13.284z" id="path78211"/>
    <path transform="translate(-353.512 -351.983) translate(0 280.783)" stroke="#8189a1" fill="#8189a1" stroke-miterlimit="2" stroke-width="0" d="m602.68245,82.52992c-0.054,-0.972 -0.162,-1.944 -0.432,-2.862c-0.54,-1.89 -1.62,-3.618 -2.97,-5.022c-1.404,-1.404 -3.186,-2.43 -5.076,-2.97c-3.726,-1.026 -7.668,-0.324 -10.854,1.458c-1.566,0.918 -2.97,2.052 -4.158,3.402c-0.594,0.648 -1.134,1.404 -1.566,2.106c-0.486,0.756 -0.972,1.458 -1.404,2.214c-1.944,2.808 -3.78,5.724 -5.616,8.64l-2.754,4.32c-0.648,1.134 -1.35,2.16 -1.998,3.294l-11.826,18.522l-10.908,-18.576l-10.26,0l0,0.27c2.7,0 4.752,2.16 6.318,4.86l-0.054,0l9.504,16.146l0,1.08l5.832,0l0,-2.808l0.054,-0.054l12.42,-19.494c0.594,-0.864 1.188,-1.782 1.782,-2.7l2.808,-4.32c1.89,-2.862 3.726,-5.724 5.508,-8.64l1.404,-2.214c0.432,-0.702 0.972,-1.35 1.566,-1.89c1.134,-1.188 2.538,-2.106 4.05,-2.7c0.756,-0.324 1.512,-0.54 2.322,-0.648c0.81,-0.162 1.566,-0.216 2.376,-0.216c0.756,0 1.566,0.108 2.322,0.216c0.756,0.162 1.512,0.378 2.16,0.648c2.808,1.08 4.968,3.294 6.048,6.048c0.54,1.35 0.81,2.862 0.648,4.428c0,0.756 -0.162,1.512 -0.432,2.214c-0.216,0.702 -0.594,1.404 -1.026,1.998c-0.486,0.648 -1.08,1.188 -1.674,1.674c-0.648,0.432 -1.404,0.81 -2.16,1.08c-1.512,0.486 -3.24,0.432 -4.752,-0.108c-1.458,-0.54 -2.754,-1.62 -3.51,-3.024c-0.81,-1.35 -1.026,-3.024 -0.648,-4.59l-1.08,-0.216c-0.432,1.782 -0.162,3.726 0.756,5.346c0.864,1.62 2.376,2.916 4.158,3.51c1.728,0.594 3.618,0.594 5.4,0.162c0.864,-0.216 1.728,-0.54 2.538,-0.972c0.81,-0.486 1.566,-1.026 2.214,-1.728c0.702,-0.648 1.242,-1.458 1.728,-2.268c0.216,-0.432 0.432,-0.864 0.594,-1.35c0.162,-0.432 0.27,-0.918 0.378,-1.35c0.216,-0.972 0.324,-1.944 0.27,-2.916zm-51.948,38.016l-2.106,0l0,14.256l5.832,0l0,-10.476c0,-2.106 -1.674,-3.78 -3.726,-3.78z" id="path78213"/>
    <path transform="translate(-353.512 -351.983) translate(0 280.783)" stroke="#8c94a9" fill="#8c94a9" stroke-miterlimit="2" stroke-width="0" d="m598.00805,133.72192l-18.576,0l0,-36.666l-10.692,0l0,0.27c2.7,0 4.86,2.16 4.86,4.806l0,32.67l24.408,0l0,-1.08z" id="path78215"/>
    <path transform="translate(-353.512 -351.983) translate(0 280.783)" stroke="#98a0b2" fill="#98a0b2" stroke-miterlimit="2" stroke-width="0" d="m627.41197,97.05592l0,23.598c0,7.344 -6.534,13.284 -12.69001,13.284c-6.156,0 -9.66599,-5.94 -9.66599,-13.284l0,-23.598l-10.692,0l0,0.27c2.69999,0 4.85999,2.16 4.85999,4.806l0,18.522c0,8.046 6.534,14.58 14.63401,14.58c8.09999,0 14.63399,-6.534 14.63399,-14.58l0,-23.598l-1.07999,0z" id="path78217"/>
    <path transform="translate(-353.512 -351.983) translate(0 280.783)" stroke="#a4abbb" fill="#a4abbb" stroke-miterlimit="2" stroke-width="0" d="m664.49391,130.58992l-11.772,-18.414l11.88,-15.12l-1.08,0l-11.34,14.364l-7.074,-11.124c-1.35,-2.052 -3.51,-3.24 -5.94,-3.24l-6.102,0l0,0.27c2.7,0 4.914,2.16 6.588,4.806l8.91,13.878l-14.796,18.792l1.134,0l14.148,-17.982l9.45,14.742c1.35,2.052 3.51,3.24 5.94,3.24l6.048,0l0,-0.27c-2.376,0 -4.374,-1.674 -5.994,-3.942z" id="path78219"/>
   </g>
   <image width="0" height="0" y="-351.98328" x="-353.51215" id="icon"/>
  </g>
 </g>
</svg>