<svg y="558.665" x="988" viewBox="0 0 356 52" height="52" width="356" xmlns:xlink="http://www.w3.org/1999/xlink" xmlns="http://www.w3.org/2000/svg">
 <g id="Layer_1">
  <title>Layer 1</title>
  <metadata id="svg_28">image/svg+xml</metadata>
  <g id="svg_3" transform="translate(0 0)">
   <image id="svg_18" x="-333.96937" y="-358.11919" height="0" width="0"/>
   <g id="svg_17" transform="translate(0 0)" font-style="normal" font-weight="600" font-size="32px" font-family="Karma" text-anchor="middle"/>
   <g id="svg_5" transform="translate(0 0)" font-style="normal" font-weight="400" font-size="72px" font-family="Megrim" text-anchor="middle">
    <path id="svg_16" d="m32.76,53.35921l-16.38,38.6568l-16.38,-38.6568l2.09664,0l14.28336,33.61176l14.28336,-33.61176l2.09664,0z" stroke-width="0" stroke-miterlimit="2" fill="#ec9126" stroke="#ec9126" transform="translate(0 -357) translate(0 304.296)"/>
    <path id="svg_15" d="m41.41887,53.35921l0,19.0008q0,9.76248 3.07944,13.7592q3.14496,3.9312 8.58312,3.9312q5.43816,0 8.5176,-3.9312q3.14496,-3.99672 3.14496,-13.7592l0,-19.0008l1.9656,0l0,19.0008q0,19.656 -13.62816,19.656q-13.62816,0 -13.62816,-19.656l0,-19.0008l1.9656,0z" stroke-width="0" stroke-miterlimit="2" fill="#e58b25" stroke="#e58b25" transform="translate(0 -357) translate(0 304.296)"/>
    <path id="svg_14" d="m103.92086,87.49513q-3.6036,4.52088 -11.7936,4.52088q-8.19,0 -11.72808,-4.65192q-3.53808,-4.65192 -3.53808,-15.00408q0,-10.35216 3.53808,-15.00408q3.53808,-4.65192 11.72808,-4.65192q9.5004,0 12.90744,6.2244l-16.0524,13.4316l-3.07944,0l16.57656,-13.82472q-2.88288,-3.86568 -10.35216,-3.86568q-3.276,0 -5.50368,0.72072q-2.22768,0.6552 -4.12776,2.55528q-1.83456,1.83456 -2.75184,5.43816q-0.91728,3.53808 -0.91728,8.97624q0,5.43816 0.91728,9.04176q0.91728,3.53808 2.75184,5.43816q1.90008,1.83456 4.12776,2.55528q2.22768,0.6552 5.50368,0.6552q7.46928,0 10.35216,-3.86568l1.44144,1.3104z" stroke-width="0" stroke-miterlimit="2" fill="#dd8524" stroke="#dd8524" transform="translate(0 -357) translate(0 304.296)"/>
    <path id="svg_13" d="m139.02831,53.35921l0,1.9656l-13.7592,0l0,36.036l-1.96561,0l0,-36.036l-13.7592,0l0,-1.9656l29.48401,0z" stroke-width="0" stroke-miterlimit="2" fill="#d67f23" stroke="#d67f23" transform="translate(0 -357) translate(0 304.296)"/>
    <path id="svg_12" d="m146.57848,53.35921l1.9656,0l0,38.0016l-1.9656,0l0,-38.0016z" stroke-width="0" stroke-miterlimit="2" fill="#ce7922" stroke="#ce7922" transform="translate(0 -357) translate(0 304.296)"/>
    <path id="svg_11" d="m160.38372,91.36081l0,-19.0008q0,-10.35216 3.53808,-15.00408q3.60361,-4.65192 11.72809,-4.65192q9.5004,0 12.90744,6.2244l-13.69369,11.466l13.95577,0l0,1.9656l-19.39393,0l16.57657,-13.82472q-2.88288,-3.86568 -10.35216,-3.86568q-3.27601,0 -5.50368,0.72072q-2.22769,0.6552 -4.12777,2.55528q-1.83456,1.83456 -2.75184,5.43816q-0.91728,3.53808 -0.91728,8.97624l0,19.0008l-1.9656,0z" stroke-width="0" stroke-miterlimit="2" fill="#c77321" stroke="#c77321" transform="translate(0 -357) translate(0 304.296)"/>
    <path id="svg_10" d="m200.95496,53.35921l25.35624,0l-15.39721,36.3636l0,14.742l-1.9656,0l0,-14.742l-15.39719,-36.3636l2.09664,0l14.28336,33.61176l13.4316,-31.64616l-22.40784,0l0,-1.9656z" stroke-width="0" stroke-miterlimit="2" fill="#c06c20" stroke="#c06c20" transform="translate(0 -357) translate(0 304.296)"/>
    <path id="svg_9" d="m230.71435,97.25761l0,-1.9656l26.208,0l0,1.9656l-26.208,0z" stroke-width="0" stroke-miterlimit="2" fill="#b8661f" stroke="#b8661f" transform="translate(0 -357) translate(0 304.296)"/>
    <path id="svg_8" d="m288.36888,89.39521l0,1.9656l-21.88368,0l0,-38.0016l1.96559,0l0,36.036l19.91809,0z" stroke-width="0" stroke-miterlimit="2" fill="#b1601e" stroke="#b1601e" transform="translate(0 -357) translate(0 304.296)"/>
    <path id="svg_7" d="m297.22841,53.35921l0,19.0008q0,9.76248 3.07944,13.7592q3.14496,3.9312 8.58312,3.9312q5.43816,0 8.51761,-3.9312q3.14496,-3.99672 3.14496,-13.7592l0,-19.0008l1.96559,0l0,19.0008q0,19.656 -13.62816,19.656q-13.62816,0 -13.62816,-19.656l0,-19.0008l1.9656,0z" stroke-width="0" stroke-miterlimit="2" fill="#a95a1d" stroke="#a95a1d" transform="translate(0 -357) translate(0 304.296)"/>
    <path id="svg_6" d="m344.26767,70.85305l11.79361,20.50776l-2.2932,0l-10.67976,-18.47664l-10.67977,18.47664l-2.2932,0l11.7936,-20.50776l-10.09007,-17.49384l2.2932,0l8.97624,15.52824l8.97623,-15.52824l2.2932,0l-10.09008,17.49384z" stroke-width="0" stroke-miterlimit="2" fill="#a2541c" stroke="#a2541c" transform="translate(0 -357) translate(0 304.296)"/>
   </g>
   <image id="svg_4" x="-333.96937" y="-358.11919" height="0" width="0"/>
  </g>
 </g>
</svg>