<svg y="551.165" x="960" version="1.1" width="412" height="67" viewBox="0 0 412 67" id="svg4578" xmlns:xlink="http://www.w3.org/1999/xlink" xmlns="http://www.w3.org/2000/svg" xmlns:svg="http://www.w3.org/2000/svg" xmlns:rdf="http://www.w3.org/1999/02/22-rdf-syntax-ns#" xmlns:cc="http://creativecommons.org/ns#" xmlns:dc="http://purl.org/dc/elements/1.1/">
 <metadata id="metadata4584">image/svg+xml</metadata>

 <linearGradient id="3d_gradient2-logo-be9fcf93-76f3-4195-b816-3f382377cd48" x1="30%" y1="120%" x2="-10%" y2="30%" spreadMethod="pad">
  <stop offset="0%" stop-color="#ffffff" id="stop4559"/>
  <stop offset="100%" stop-color="#000000" id="stop4561"/>
 </linearGradient>
 <linearGradient id="3d_gradient3-logo-be9fcf93-76f3-4195-b816-3f382377cd48" x1="30%" y1="120%" x2="-10%" y2="30%" spreadMethod="pad" gradientTransform="rotate(-30)">
  <stop offset="0%" stop-color="#ffffff" id="stop4564"/>
  <stop offset="50%" stop-color="#cccccc" id="stop4566"/>
  <stop offset="100%" stop-color="#000000" id="stop4568"/>
 </linearGradient>
 <g id="logo-group">
  <g id="logo-center">
   <image width="0" height="0" y="-350.55203" x="-306.10635" id="icon_container"/>
   <g text-anchor="middle" font-family="Raleway" font-size="32px" font-weight="600" font-style="normal" transform="translate(0 0)" id="slogan"/>
   <g text-anchor="middle" font-family="'Comfortaa Bold Alt1'" font-size="72px" font-weight="700" font-style="normal" transform="translate(0 0)" id="title">
    <path transform="translate(-306.106 -350.552) translate(0 295.491)" stroke="#5e636e" fill="#5e636e" stroke-miterlimit="2" stroke-width="0" d="m340.17676,71.96504c-0.3276,-0.45864 -0.78624,-0.85176 -1.3104,-1.11384c-0.45864,-0.19656 -0.9828,-0.3276 -1.50696,-0.3276c-0.58968,0 -1.11384,0.19656 -1.638,0.45864c-0.52416,0.26208 -0.85176,0.6552 -1.11384,1.17936l-11.26944,24.57l-11.40048,-24.57c-0.26208,-0.52416 -0.6552,-0.91728 -1.11384,-1.17936c-0.52416,-0.26208 -0.9828,-0.45864 -1.50696,-0.45864c-0.52416,0 -0.9828,0.13104 -1.37592,0.3276c-1.24488,0.6552 -1.83456,1.50696 -1.83456,2.68632c0,0.45864 0.06552,0.85176 0.26208,1.17936l13.89024,29.28744c0.39312,0.78624 0.78624,1.37592 1.3104,1.70352c0.45864,0.3276 1.04832,0.45864 1.83456,0.45864c1.3104,0 2.35872,-0.72072 3.01392,-2.16216l13.89024,-29.28744c0.19656,-0.39312 0.3276,-0.85176 0.3276,-1.24488c0,-0.52416 -0.19656,-1.04832 -0.45864,-1.50696z" id="path4587"/>
    <path transform="translate(-306.106 -350.552) translate(0 295.491)" stroke="#656a74" fill="#656a74" stroke-miterlimit="2" stroke-width="0" d="m386.5027,102.89048l0,-29.22192c0,-0.9828 -0.3276,-1.76904 -0.91728,-2.42424c-0.6552,-0.58968 -1.44144,-0.91728 -2.42424,-0.91728c-0.9828,0 -1.76904,0.3276 -2.42424,0.91728c-0.6552,0.6552 -0.91728,1.44144 -0.91728,2.42424l0,18.47664c0,1.638 -0.45864,3.01392 -1.3104,4.2588c-0.85176,1.3104 -2.03112,2.2932 -3.53808,3.01392c-1.50696,0.78624 -3.21048,1.11384 -4.97952,1.11384c-3.21048,0 -5.70024,-0.85176 -7.60032,-2.68632c-1.90008,-1.83456 -2.81736,-4.52088 -2.81736,-8.05896l0,-16.11792c0,-0.91728 -0.3276,-1.70352 -0.9828,-2.35872c-0.6552,-0.6552 -1.44144,-0.9828 -2.35872,-0.9828c-0.9828,0 -1.76904,0.3276 -2.42424,0.9828c-0.6552,0.6552 -0.91728,1.44144 -0.91728,2.35872l0,16.11792c0,3.6036 0.6552,6.61752 2.03112,9.10728c1.3104,2.48976 3.21048,4.45536 5.63472,5.70024c2.2932,1.3104 4.78296,1.9656 7.5348,2.03112c0.13104,0 5.17608,0 15.33168,0c0.85176,0 1.57248,-0.3276 2.16216,-0.91728c0.58968,-0.58968 0.91728,-1.3104 0.91728,-2.22768l0,-0.58968z" id="path4589"/>
    <path transform="translate(-306.106 -350.552) translate(0 295.491)" stroke="#6c707b" fill="#6c707b" stroke-miterlimit="2" stroke-width="0" d="m435.96133,89.852c0.52416,-0.52416 0.85176,-1.24488 0.85176,-2.09664c0,-3.40704 -0.6552,-6.48648 -1.9656,-9.1728c-1.3104,-2.6208 -3.21048,-4.71744 -5.63472,-6.2244c-2.48976,-1.44144 -5.37264,-2.22768 -8.71416,-2.22768c-3.40704,0 -6.48648,0.78624 -9.1728,2.35872c-2.68632,1.57248 -4.78296,3.73464 -6.28992,6.48648c-1.50696,2.75184 -2.22768,5.8968 -2.22768,9.36936c0,3.53808 0.78624,6.61752 2.35872,9.36936c1.57248,2.75184 3.80016,4.914 6.68304,6.48648c2.81736,1.57248 6.02784,2.2932 9.63144,2.2932c1.9656,0 4.06224,-0.3276 6.28992,-1.11384c2.22768,-0.72072 4.06224,-1.70352 5.5692,-2.88288c0.6552,-0.52416 1.04832,-1.17936 1.04832,-1.9656c0,-0.78624 -0.39312,-1.57248 -1.17936,-2.22768c-0.52416,-0.39312 -1.17936,-0.6552 -1.9656,-0.6552c-0.85176,0 -1.57248,0.26208 -2.16216,0.72072c-0.91728,0.72072 -2.09664,1.3104 -3.53808,1.76904c-1.44144,0.52416 -2.75184,0.72072 -4.06224,0.72072c-3.34152,0 -6.15888,-0.91728 -8.45208,-2.81736c-2.2932,-1.83456 -3.66912,-4.32432 -4.12776,-7.40376l24.8976,0c0.85176,0 1.57248,-0.26208 2.16216,-0.78624zm-23.2596,-11.466c1.9656,-1.70352 4.5864,-2.6208 7.79688,-2.6208c2.88288,0 5.17608,0.91728 7.01064,2.6208c1.76904,1.76904 2.88288,4.12776 3.276,7.01064l-21.81816,0c0.52416,-2.88288 1.76904,-5.2416 3.73464,-7.01064z" id="path4591"/>
    <path transform="translate(-306.106 -350.552) translate(0 295.491)" stroke="#727781" fill="#727781" stroke-miterlimit="2" stroke-width="0" d="m453.21376,71.70296l0,5.63472l0,16.18344c0,2.42424 0.45864,4.5864 1.50696,6.48648c0.9828,1.9656 2.35872,3.47256 4.12776,4.5864c1.76904,1.11384 3.73464,1.638 5.8968,1.638l1.17936,0c1.11384,0 2.03112,-0.26208 2.75184,-0.91728c0.72072,-0.58968 1.11384,-1.37592 1.11384,-2.35872c0,-0.91728 -0.3276,-1.70352 -0.85176,-2.35872c-0.52416,-0.58968 -1.17936,-0.91728 -1.9656,-0.91728l-2.22768,0c-1.44144,0 -2.6208,-0.58968 -3.53808,-1.76904c-0.9828,-1.17936 -1.44144,-2.6208 -1.44144,-4.38984l0,-16.18344l5.5692,0c0.91728,0 1.638,-0.26208 2.22768,-0.78624c0.52416,-0.52416 0.85176,-1.17936 0.85176,-1.9656c0,-0.85176 -0.3276,-1.57248 -0.85176,-2.09664c-0.58968,-0.52416 -1.3104,-0.78624 -2.22768,-0.78624l-5.5692,0l0,-9.43488c0,-0.91728 -0.3276,-1.70352 -0.91728,-2.35872c-0.6552,-0.58968 -1.44144,-0.91728 -2.35872,-0.91728c-0.9828,0 -1.76904,0.3276 -2.35872,0.91728c-0.6552,0.6552 -0.91728,1.44144 -0.91728,2.35872l0,9.43488z" id="path4593"/>
    <path transform="translate(-306.106 -350.552) translate(0 295.491)" stroke="#797d88" fill="#797d88" stroke-miterlimit="2" stroke-width="0" d="m485.88287,71.30984c-0.6552,0.6552 -0.91728,1.44144 -0.91728,2.42424l0,29.1564c0,0.9828 0.26208,1.76904 0.91728,2.42424c0.6552,0.6552 1.44144,0.91728 2.42424,0.91728c0.9828,0 1.76904,-0.26208 2.42424,-0.91728c0.58968,-0.6552 0.91728,-1.44144 0.91728,-2.42424l0,-29.1564c0,-0.9828 -0.3276,-1.76904 -0.91728,-2.42424c-0.6552,-0.58968 -1.44144,-0.91728 -2.42424,-0.91728c-0.9828,0 -1.76904,0.3276 -2.42424,0.91728z" id="path4595"/>
    <path transform="translate(-306.106 -350.552) translate(0 295.491)" stroke="#80848e" fill="#80848e" stroke-miterlimit="2" stroke-width="0" d="m511.17077,71.70296l0,5.63472l0,25.5528c0,1.04832 0.26208,1.83456 0.91728,2.42424c0.6552,0.6552 1.37592,0.91728 2.2932,0.91728c1.04832,0 1.90008,-0.26208 2.55528,-0.91728c0.58968,-0.58968 0.91728,-1.37592 0.91728,-2.42424l0,-25.5528l6.68304,0c0.91728,0 1.638,-0.26208 2.22768,-0.78624c0.52416,-0.52416 0.85176,-1.17936 0.85176,-1.9656c0,-0.85176 -0.3276,-1.57248 -0.85176,-2.09664c-0.58968,-0.52416 -1.3104,-0.78624 -2.22768,-0.78624l-6.68304,0l0,-1.76904c0,-2.6208 0.72072,-4.78296 2.22768,-6.42096c1.44144,-1.57248 3.40704,-2.42424 5.8968,-2.42424c0.91728,0 1.70352,-0.26208 2.35872,-0.85176c0.6552,-0.52416 0.9828,-1.24488 0.9828,-2.16216c0,-0.85176 -0.3276,-1.57248 -0.9828,-2.16216c-0.6552,-0.52416 -1.44144,-0.85176 -2.35872,-0.85176c-2.9484,0 -5.50368,0.6552 -7.73136,1.9656c-2.22768,1.3104 -3.99672,3.07944 -5.2416,5.43816c-1.24488,2.35872 -1.83456,5.04504 -1.83456,8.12448l0,1.11384z" id="path4597"/>
    <path transform="translate(-306.106 -350.552) translate(0 295.491)" stroke="#878b94" fill="#878b94" stroke-miterlimit="2" stroke-width="0" d="m570.36214,73.27544c0,-1.17936 -0.72072,-2.03112 -2.03112,-2.55528c-0.52416,-0.19656 -1.04832,-0.3276 -1.57248,-0.3276c-1.17936,0 -2.03112,0.6552 -2.55528,1.90008l-10.54872,23.78376l-11.99016,-23.84928c-0.6552,-1.17936 -1.57248,-1.83456 -2.75184,-1.83456c-0.52416,0 -0.91728,0.13104 -1.3104,0.26208c-0.58968,0.26208 -1.04832,0.6552 -1.37592,1.11384c-0.39312,0.52416 -0.52416,1.04832 -0.52416,1.57248c0,0.52416 0.06552,0.9828 0.3276,1.37592l14.742,27.97704l-6.552,14.742c-0.26208,0.52416 -0.39312,1.04832 -0.39312,1.57248c0,1.17936 0.6552,2.03112 1.9656,2.55528c0.58968,0.26208 1.11384,0.39312 1.57248,0.39312c1.17936,0 2.03112,-0.6552 2.55528,-2.03112l20.04912,-45.07776c0.26208,-0.58968 0.39312,-1.11384 0.39312,-1.57248z" id="path4599"/>
    <path transform="translate(-306.106 -350.552) translate(0 295.491)" stroke="#8e919b" fill="#8e919b" stroke-miterlimit="2" stroke-width="0" d="m599.40619,85.98632c-0.6552,-0.6552 -1.44144,-0.9828 -2.35872,-0.9828l-14.61096,0c-0.9828,0 -1.76904,0.3276 -2.42424,0.9828c-0.6552,0.6552 -0.91728,1.44144 -0.91728,2.35872c0,0.9828 0.26208,1.76904 0.91728,2.35872c0.6552,0.6552 1.44144,0.91728 2.42424,0.91728l14.61096,0c0.91728,0 1.70352,-0.26208 2.35872,-0.91728c0.58968,-0.58968 0.91728,-1.37592 0.91728,-2.35872c0,-0.91728 -0.3276,-1.70352 -0.91728,-2.35872z" id="path4601"/>
    <path transform="translate(-306.106 -350.552) translate(0 295.491)" stroke="#9498a1" fill="#9498a1" stroke-miterlimit="2" stroke-width="0" d="m614.20374,55.97816c-0.6552,0.6552 -0.91728,1.44144 -0.91728,2.35872l0,35.77392c0,2.35872 0.39312,4.45536 1.24488,6.28992c0.78624,1.83456 1.9656,3.276 3.47256,4.32432c1.50696,1.04832 3.21048,1.50696 5.11056,1.50696l0.13104,0c1.3104,0 2.35872,-0.26208 3.21048,-0.91728c0.78624,-0.58968 1.24488,-1.37592 1.24488,-2.35872c0,-0.91728 -0.3276,-1.70352 -0.85176,-2.35872c-0.52416,-0.58968 -1.24488,-0.91728 -2.09664,-0.91728l-1.638,0c-0.9828,0 -1.76904,-0.52416 -2.35872,-1.57248c-0.6552,-1.04832 -0.91728,-2.35872 -0.91728,-3.99672l0,-35.77392c0,-0.91728 -0.3276,-1.70352 -0.91728,-2.35872c-0.6552,-0.58968 -1.44144,-0.91728 -2.35872,-0.91728c-0.9828,0 -1.76904,0.3276 -2.35872,0.91728z" id="path4603"/>
    <path transform="translate(-306.106 -350.552) translate(0 295.491)" stroke="#9b9ea8" fill="#9b9ea8" stroke-miterlimit="2" stroke-width="0" d="m673.56508,102.89048l0,-29.22192c0,-0.9828 -0.3276,-1.76904 -0.91728,-2.42424c-0.6552,-0.58968 -1.44144,-0.91728 -2.42424,-0.91728c-0.9828,0 -1.76904,0.3276 -2.42424,0.91728c-0.6552,0.6552 -0.91728,1.44144 -0.91728,2.42424l0,18.47664c0,1.638 -0.45864,3.01392 -1.3104,4.2588c-0.85176,1.3104 -2.03112,2.2932 -3.53808,3.01392c-1.50696,0.78624 -3.21048,1.11384 -4.97952,1.11384c-3.21048,0 -5.70024,-0.85176 -7.60032,-2.68632c-1.90008,-1.83456 -2.81736,-4.52088 -2.81736,-8.05896l0,-16.11792c0,-0.91728 -0.3276,-1.70352 -0.9828,-2.35872c-0.6552,-0.6552 -1.44144,-0.9828 -2.35872,-0.9828c-0.9828,0 -1.76904,0.3276 -2.42424,0.9828c-0.6552,0.6552 -0.91728,1.44144 -0.91728,2.35872l0,16.11792c0,3.6036 0.6552,6.61752 2.03112,9.10728c1.3104,2.48976 3.21048,4.45536 5.63472,5.70024c2.2932,1.3104 4.78296,1.9656 7.5348,2.03112c0.13104,0 5.17608,0 15.33168,0c0.85176,0 1.57248,-0.3276 2.16216,-0.91728c0.58968,-0.58968 0.91728,-1.3104 0.91728,-2.22768l0,-0.58968z" id="path4605"/>
    <path transform="translate(-306.106 -350.552) translate(0 295.491)" stroke="#a2a5ae" fill="#a2a5ae" stroke-miterlimit="2" stroke-width="0" d="m717.89364,103.48016c0,-0.85176 -0.3276,-1.638 -0.91728,-2.2932l-10.41768,-12.4488l9.89352,-12.90744c0.58968,-0.78624 0.91728,-1.638 0.91728,-2.6208c0,-0.78624 -0.26208,-1.44144 -0.78624,-1.9656c-0.52416,-0.52416 -1.17936,-0.85176 -2.03112,-0.85176c-1.04832,0 -1.90008,0.39312 -2.42424,1.11384l-9.63144,12.84192l-10.74528,-12.84192c-0.6552,-0.72072 -1.44144,-1.11384 -2.48976,-1.11384c-0.91728,0 -1.638,0.26208 -2.16216,0.78624c-0.52416,0.52416 -0.72072,1.17936 -0.72072,1.90008c0,0.91728 0.3276,1.70352 0.9828,2.48976l10.8108,12.7764l-10.1556,12.71088c-0.6552,0.78624 -0.91728,1.57248 -0.91728,2.42424c0,0.78624 0.19656,1.44144 0.72072,1.9656c0.52416,0.52416 1.17936,0.78624 2.09664,0.78624c0.91728,0 1.70352,-0.3276 2.35872,-1.04832l9.89352,-12.4488l10.41768,12.4488c0.52416,0.72072 1.3104,1.04832 2.35872,1.04832c0.85176,0 1.57248,-0.26208 2.09664,-0.78624c0.52416,-0.52416 0.85176,-1.17936 0.85176,-1.9656z" id="path4607"/>
   </g>
   <image width="0" height="0" y="-350.55203" x="-306.10635" id="icon"/>
  </g>
 </g>
</svg>