<svg version="1.1" id="Layer_1" xmlns="http://www.w3.org/2000/svg" xmlns:xlink="http://www.w3.org/1999/xlink" x="0px" y="0px"
	 width="100%" viewBox="0 0 292 350" enable-background="new 0 0 292 350" xml:space="preserve">
<path fill="#FEFFFF" opacity="1.000000" stroke="none" 
	d="
M1.000000,128.000000 
	C1.000000,85.349754 1.000000,43.199505 1.000000,1.024629 
	C98.279007,1.024629 195.558014,1.024629 292.918518,1.024629 
	C292.918518,117.566864 292.918518,234.133804 292.918518,350.850372 
	C195.666840,350.850372 98.333450,350.850372 1.000000,350.850372 
	C1.000000,276.775421 1.000000,202.637711 1.000000,128.000000 
M60.945122,103.841530 
	C42.713490,103.841530 24.481857,103.841530 5.292197,103.841530 
	C52.947048,186.459473 100.087868,268.186249 147.480728,350.349976 
	C195.001831,268.033112 242.189346,186.294067 289.779907,103.856873 
	C270.104889,103.856873 251.620804,103.856873 233.073532,103.150719 
	C233.940903,101.371254 234.704636,99.532021 235.691330,97.821396 
	C248.489014,75.634048 261.324280,53.468391 274.136688,31.289537 
	C279.085297,22.723295 284.000122,14.137545 289.584625,4.422431 
	C286.640228,5.343472 284.933716,5.822242 283.264526,6.407475 
	C238.979431,21.934256 194.704971,37.491520 150.390533,52.934074 
	C148.682556,53.529266 146.411621,53.569023 144.713531,52.976955 
	C105.802299,39.409748 66.936913,25.711136 28.055904,12.057143 
	C20.953766,9.563058 13.820872,7.156544 5.668715,4.354370 
	C6.763332,6.406374 7.201184,7.288102 7.692324,8.139076 
	C24.146460,36.648350 40.631691,65.139748 57.028324,93.682045 
	C58.893276,96.928444 60.264931,100.458237 60.945122,103.841530 
z"/>
<path fill="#2064EA" opacity="1.000000" stroke="none" 
	d="
M233.136719,103.856873 
	C251.620804,103.856873 270.104889,103.856873 289.779907,103.856873 
	C242.189346,186.294067 195.001831,268.033112 147.480728,350.349976 
	C100.087868,268.186249 52.947048,186.459473 5.292197,103.841530 
	C24.481857,103.841530 42.713490,103.841530 61.662327,103.928421 
	C62.558861,104.006554 62.738190,103.997810 63.065762,104.306396 
	C91.225380,153.133133 119.236748,201.642517 147.536011,250.650467 
	C175.919067,201.411285 203.997498,152.700562 232.346878,104.002457 
	C232.790787,103.962349 232.963760,103.909615 233.136719,103.856873 
z"/>
<path fill="#7486FB" opacity="1.000000" stroke="none" 
	d="
M233.105133,103.503799 
	C232.963760,103.909615 232.790787,103.962349 231.872528,103.984970 
	C175.057327,103.966263 118.987419,103.977661 62.917519,103.989059 
	C62.738190,103.997810 62.558861,104.006554 62.122425,103.935959 
	C60.264931,100.458237 58.893276,96.928444 57.028324,93.682045 
	C40.631691,65.139748 24.146460,36.648350 7.692324,8.139076 
	C7.201184,7.288102 6.763332,6.406374 5.668715,4.354370 
	C13.820872,7.156544 20.953766,9.563058 28.055904,12.057143 
	C66.936913,25.711136 105.802299,39.409748 144.713531,52.976955 
	C146.411621,53.569023 148.682556,53.529266 150.390533,52.934074 
	C194.704971,37.491520 238.979431,21.934256 283.264526,6.407475 
	C284.933716,5.822242 286.640228,5.343472 289.584625,4.422431 
	C284.000122,14.137545 279.085297,22.723295 274.136688,31.289537 
	C261.324280,53.468391 248.489014,75.634048 235.691330,97.821396 
	C234.704636,99.532021 233.940903,101.371254 233.105133,103.503799 
z"/>
<path fill="#FEFEFF" opacity="1.000000" stroke="none" 
	d="
M63.065762,104.306396 
	C118.987419,103.977661 175.057327,103.966263 231.601578,103.972351 
	C203.997498,152.700562 175.919067,201.411285 147.536011,250.650467 
	C119.236748,201.642517 91.225380,153.133133 63.065762,104.306396 
z"/>
</svg>