<svg xml:space="preserve" viewBox="0 0 100 100" y="0" x="0" xmlns="http://www.w3.org/2000/svg"  version="1.1" style="margin: initial; display: block; shape-rendering: auto;" preserveAspectRatio="xMidYMid" width="200" height="200"><g class="ldl-scale" style="transform-origin: 50% 50%; transform: rotate(0deg) scale(1.2, 1.2);"><g class="ldl-ani"><g class="ldl-layer"><g class="ldl-ani" style="transform: matrix3d(0.91, 0, 0, 0, 0, 0.91, 0, 0, 0, 0, 0.91, 0, 0, 0, 0, 1); transform-box: view-box; opacity: 1; animation: 1s linear -0.666667s infinite normal forwards running animate; transform-origin: 50px 50px;"><circle stroke="#333" stroke-width="8" fill="#fff" stroke-miterlimit="10" r="37" cy="50" cx="50" style="stroke-width: 8; fill: rgb(255, 255, 255); stroke: rgb(51, 51, 51);"></circle></g></g><g class="ldl-layer"><g class="ldl-ani" style="transform: matrix3d(0.91, 0, 0, 0, 0, 0.91, 0, 0, 0, 0, 0.91, 0, 0, 0, 0, 1); transform-box: view-box; opacity: 1; animation: 1s linear -0.833333s infinite normal forwards running animate; transform-origin: 50px 50px;"><path fill="#333" d="M45.39 70H34.841c-.666 0-1.205-.54-1.205-1.205v-37.59c0-.666.54-1.205 1.205-1.205H45.39c.666 0 1.205.54 1.205 1.205v37.59c0 .665-.54 1.205-1.205 1.205z" style="stroke-width: 1; fill: rgb(51, 51, 51);"></path></g></g><g class="ldl-layer"><g class="ldl-ani" style="transform: matrix3d(0.91, 0, 0, 0, 0, 0.91, 0, 0, 0, 0, 0.91, 0, 0, 0, 0, 1); transform-box: view-box; opacity: 1; animation: 1s linear -1s infinite normal forwards running animate; transform-origin: 50px 50px;"><path fill="#333" d="M65.159 70H54.61c-.666 0-1.205-.54-1.205-1.205v-37.59c0-.666.54-1.205 1.205-1.205h10.549c.666 0 1.205.54 1.205 1.205v37.59c0 .665-.54 1.205-1.205 1.205z" style="stroke-width: 1; fill: rgb(51, 51, 51);"></path></g></g>
</g></g></svg>